<svg width="101" height="101" viewBox="0 0 101 101" fill="none" xmlns="http://www.w3.org/2000/svg">
<path d="M72.3833 21.0417C74.9083 21.0417 77.4333 21.0417 79.5375 21.4625C80.3792 31.1417 80.3792 50.5 69.0167 63.9667C60.6 74.4875 46.2917 79.9583 26.9333 79.9583H21.4625C20.6208 60.6 24.4083 45.45 33.2458 35.7708C43.7667 23.5667 60.6 21.0417 72.3833 21.0417ZM72.3833 12.625C49.2375 12.625 6.73334 21.4625 13.4667 87.5333C18.0958 87.9542 22.725 88.375 26.9333 88.375C102.262 88.375 87.1125 13.8875 87.1125 13.8875C87.1125 13.8875 81.2208 12.625 72.3833 12.625ZM71.5417 29.4583C29.4583 29.4583 29.4583 71.5417 29.4583 71.5417C46.2917 37.875 71.5417 29.4583 71.5417 29.4583Z" fill="#4F2027"/>
</svg>
