<svg width="159" height="134" viewBox="0 0 159 134" fill="none" xmlns="http://www.w3.org/2000/svg">
<path d="M1.00003 12C1.00003 9.08263 2.03385 6.28474 3.87405 4.22184C5.71425 2.15894 8.21009 1.00001 10.8125 1.00001H148.188C150.79 1.00001 153.286 2.15894 155.126 4.22184C156.966 6.28474 158 9.08263 158 12V34C158 36.9174 156.966 39.7153 155.126 41.7782C153.286 43.8411 150.79 45 148.188 45H10.8125C8.21009 45 5.71425 43.8411 3.87405 41.7782C2.03385 39.7153 1.00003 36.9174 1.00003 34V12ZM10.8125 45H148.188L128.563 133H30.4375L10.8125 45Z" fill="#72482E"/>
<path d="M148.188 45C150.79 45 153.286 43.8411 155.126 41.7782C156.966 39.7153 158 36.9174 158 34V12C158 9.08263 156.966 6.28474 155.126 4.22184C153.286 2.15894 150.79 1.00001 148.188 1.00001H10.8125C8.21009 1.00001 5.71425 2.15894 3.87405 4.22184C2.03385 6.28474 1.00003 9.08263 1.00003 12V34C1.00003 36.9174 2.03385 39.7153 3.87405 41.7782C5.71425 43.8411 8.21009 45 10.8125 45M148.188 45H10.8125M148.188 45L128.563 133H30.4375L10.8125 45" stroke="black" stroke-width="2" stroke-linecap="round" stroke-linejoin="round"/>
</svg>
