<svg width="81" height="139" viewBox="0 0 81 139" fill="none" xmlns="http://www.w3.org/2000/svg">
<path d="M3.53224 80.8709C3.53224 79.4935 4.02568 78.1725 4.904 77.1985C5.78232 76.2246 6.97358 75.6774 8.21571 75.6774H73.7843C75.0264 75.6774 76.2177 76.2246 77.096 77.1985C77.9743 78.1725 78.4678 79.4935 78.4678 80.8709V91.258C78.4678 92.6354 77.9743 93.9564 77.096 94.9304C76.2177 95.9044 75.0264 96.4516 73.7843 96.4516H8.21571C6.97358 96.4516 5.78232 95.9044 4.904 94.9304C4.02568 93.9564 3.53224 92.6354 3.53224 91.258V80.8709ZM8.21571 96.4516H73.7843L64.4173 138H17.5827L8.21571 96.4516Z" fill="#72482E"/>
<path d="M73.7843 96.4516C75.0264 96.4516 76.2177 95.9044 77.096 94.9304C77.9743 93.9564 78.4678 92.6354 78.4678 91.258V80.8709C78.4678 79.4935 77.9743 78.1725 77.096 77.1985C76.2177 76.2246 75.0264 75.6774 73.7843 75.6774H8.21571C6.97358 75.6774 5.78232 76.2246 4.904 77.1985C4.02568 78.1725 3.53224 79.4935 3.53224 80.8709V91.258C3.53224 92.6354 4.02568 93.9564 4.904 94.9304C5.78232 95.9044 6.97358 96.4516 8.21571 96.4516M73.7843 96.4516H8.21571M73.7843 96.4516L64.4173 138H17.5826L8.21571 96.4516" stroke="black" stroke-width="2" stroke-linecap="round" stroke-linejoin="round"/>
<path d="M43.3021 49.9922H38.2396V75.6337H43.3021V49.9922Z" fill="url(#paint0_linear_91_87)"/>
<path d="M20.4677 64.5975C20.4677 70.6725 25.4036 75.6084 31.2508 75.6591L38.5408 75.6844C38.8951 75.6844 39.1989 75.3806 39.1736 75.0009C38.8192 68.2678 33.2505 62.8256 26.4161 62.8256H21.1764C20.9884 62.8256 20.8082 62.9003 20.6752 63.0332C20.5423 63.1661 20.4677 63.3464 20.4677 63.5344V64.5975Z" fill="url(#paint1_linear_91_87)"/>
<path d="M42.8971 73.9125C42.8971 67.8375 47.833 62.9016 53.6802 62.8509L60.9702 62.8256C61.3246 62.8256 61.6283 63.1294 61.603 63.5091C61.2487 70.2422 55.6799 75.6844 48.8455 75.6844H43.6058C43.5128 75.6844 43.4206 75.666 43.3346 75.6304C43.2486 75.5948 43.1705 75.5426 43.1047 75.4768C43.0389 75.411 42.9867 75.3328 42.951 75.2469C42.9154 75.1609 42.8971 75.0687 42.8971 74.9756V73.9125Z" fill="url(#paint2_linear_91_87)"/>
<path d="M68.2096 36.5766C68.5387 33.8681 65.1974 31.1597 60.3627 29.8181C64.4886 27.0084 66.7415 23.3634 65.5518 20.9334C64.3621 18.4781 60.0843 18.0225 55.3002 19.5412C57.224 14.9344 57.148 10.6566 54.8193 9.26437C52.693 7.97344 49.3011 9.46687 46.289 12.6816C45.4536 8.37844 43.378 5.34094 40.8974 5.31562C38.2143 5.23969 35.9108 8.68219 35.0502 13.4662C31.8608 9.79594 28.0893 7.99875 25.8365 9.41625C23.4824 10.8844 23.5077 15.3394 25.6086 20.0222C20.698 18.4528 16.2936 18.9591 15.104 21.4903C13.9649 23.9456 16.2936 27.5653 20.4955 30.3244C15.7115 31.7419 12.4208 34.4756 12.8005 37.1841C13.1802 39.8925 17.1036 41.6391 22.1408 41.6897C18.9008 45.4866 17.6352 49.5619 19.4324 51.6375C21.2296 53.7131 25.4821 53.0297 29.7093 50.3212C29.0511 55.2572 30.2408 59.3831 32.848 60.1425C35.4805 60.9019 38.6699 58.0162 40.7455 53.4347C42.8971 57.9403 46.1118 60.75 48.719 59.9653C51.3261 59.1806 52.4652 55.0041 51.7058 50.0428C55.9583 52.65 60.1855 53.2575 61.9321 51.1819C63.704 49.0809 62.3624 44.9803 59.0211 41.2341C64.0077 41.0822 67.8805 39.285 68.2096 36.5766ZM41.6568 28.9069C41.8846 29.2106 42.163 29.4638 42.4921 29.6663C42.8971 29.8941 43.3274 30.0206 43.8083 30.0713C43.8336 30.5269 43.9096 30.9572 44.1121 31.3369C44.3146 31.7419 44.6183 32.0963 44.998 32.4C44.7702 32.7797 44.6183 33.1847 44.5677 33.6403C44.5171 34.0959 44.593 34.5516 44.7196 35.0072C44.3146 35.2097 43.9602 35.4628 43.6818 35.7919C43.378 36.1462 43.2008 36.5766 43.0743 37.0322C42.6186 36.9816 42.1883 37.0069 41.7833 37.1334C41.353 37.26 40.948 37.5131 40.5936 37.8422C40.2393 37.5637 39.8596 37.3359 39.4546 37.2094C38.999 37.0828 38.5433 37.0828 38.0877 37.1588C37.9698 36.7344 37.753 36.344 37.4549 36.0197C37.1449 35.6742 36.7654 35.3981 36.3411 35.2097C36.4677 34.7794 36.493 34.3491 36.4424 33.9187C36.3665 33.4631 36.1893 33.0328 35.9361 32.6278C36.2652 32.3241 36.5436 31.995 36.7208 31.59C36.9233 31.1344 36.9993 30.6281 36.974 30.0966C37.5055 30.0459 38.0118 29.9447 38.4421 29.6663C38.7711 29.4638 39.0496 29.1853 39.2774 28.8816C39.6571 29.0334 40.0368 29.1347 40.4418 29.1347C40.8721 29.1347 41.2771 29.0588 41.6568 28.9069Z" fill="url(#paint3_linear_91_87)"/>
<path d="M40.5 48.0937C42.4482 48.0937 44.3774 47.71 46.1773 46.9644C47.9773 46.2189 49.6127 45.1261 50.9904 43.7485C52.368 42.3709 53.4608 40.7354 54.2063 38.9354C54.9519 37.1355 55.3356 35.2063 55.3356 33.2581C55.3356 31.3098 54.9519 29.3807 54.2063 27.5807C53.4608 25.7808 52.368 24.1453 50.9904 22.7677C49.6127 21.3901 47.9773 20.2973 46.1773 19.5517C44.3774 18.8062 42.4482 18.4224 40.5 18.4224C36.5653 18.4224 32.7918 19.9855 30.0096 22.7677C27.2273 25.5499 25.6643 29.3234 25.6643 33.2581C25.6643 37.1927 27.2273 40.9662 30.0096 43.7485C32.7918 46.5307 36.5653 48.0937 40.5 48.0937Z" fill="url(#paint4_linear_91_87)"/>
<path fill-rule="evenodd" clip-rule="evenodd" d="M53.4549 26.0238L51.4299 28.0488L54.2573 30.8762L55.004 30.1295C55.3742 31.8567 55.4351 33.6359 55.1838 35.3843L54.2573 34.4579L51.4375 37.2777L53.8675 39.7026C52.5195 42.4834 50.3422 44.7775 47.6356 46.2687L45.036 43.6792L42.2364 46.4788L43.54 47.7824C41.5048 48.205 39.4037 48.1981 37.3713 47.7621L38.6572 46.4788L35.8298 43.6514L33.2657 46.213C31.349 45.1387 29.693 43.6547 28.4158 41.8669L31.2255 44.6765L34.0402 41.8618L31.2255 39.047L28.4107 41.8618C27.9054 41.1495 27.4625 40.3949 27.0869 39.6065L29.4359 37.2575L26.6211 34.4427L25.7985 35.2654C25.5706 33.5851 25.6305 31.8782 25.9757 30.218L26.6211 30.8635L29.3954 28.0918L27.4666 26.168C27.88 25.4087 28.3559 24.6915 28.8942 24.0165L31.185 26.2997L34.02 23.4647L31.7925 21.2448C32.4993 20.7341 33.2488 20.2852 34.0326 19.9032L35.8096 21.6751L38.6446 18.8401L38.3737 18.5743C39.7443 18.38 41.135 18.3741 42.5072 18.5566L42.2212 18.8426L45.036 21.6574L46.8483 19.845C47.6415 20.223 48.3924 20.6643 49.1012 21.1688L46.8256 23.4469L49.6403 26.2592L52.007 23.8925C52.5504 24.559 53.033 25.2695 53.4549 26.0238ZM52.4627 41.8795L49.6454 44.6968L46.8256 41.8871L49.6454 39.0673L52.4627 41.8795ZM28.4107 32.6531L31.2255 35.4679L34.0048 32.686L31.1875 29.8763L28.4107 32.6531ZM32.9771 28.0867L35.7969 30.8964L38.6268 28.0665L35.8121 25.2543L32.9771 28.0867ZM37.6017 23.4647L40.4164 26.2744L43.2464 23.4469L40.4316 20.6322L37.6017 23.4647ZM42.2086 28.064L45.036 25.2365L47.8507 28.0488L45.0258 30.8762L42.2086 28.064ZM37.589 32.6835L40.419 29.8535L43.2337 32.6658L40.4088 35.4932L37.589 32.6835ZM33.0151 37.2575L35.7994 34.4731L38.6193 37.2828L35.8298 40.0722L33.0151 37.2575ZM52.4677 32.6658L49.6378 29.8434L46.8129 32.6658L49.6428 35.4906L52.4677 32.6658ZM47.8558 37.2777L45.0258 34.4528L42.201 37.2802L45.0334 40.1026L47.8558 37.2777ZM43.2438 41.8922L40.4088 39.0698L37.6194 41.8618L40.4468 44.6892L43.2438 41.8922Z" fill="#63332A"/>
<path d="M43.3021 49.9922H38.2396V75.6337H43.3021V49.9922Z" fill="url(#paint5_linear_91_87)"/>
<path d="M43.3021 49.9922H38.2396V75.6337H43.3021V49.9922Z" fill="url(#paint6_linear_91_87)"/>
<path d="M43.3021 49.9922H38.2396V75.6337H43.3021V49.9922Z" fill="url(#paint7_linear_91_87)"/>
<path d="M43.3021 49.9922H38.2396V75.6337H43.3021V49.9922Z" fill="url(#paint8_linear_91_87)"/>
<path d="M43.3021 49.9922H38.2396V75.6337H43.3021V49.9922Z" fill="url(#paint9_radial_91_87)"/>
<path d="M20.4879 64.5469C20.4879 70.6219 25.4239 75.5578 31.271 75.6085L38.561 75.6338C38.9154 75.6338 39.2192 75.33 39.1939 74.9503C38.8395 68.2172 33.2707 62.775 26.4364 62.775H21.1967C21.0087 62.775 20.8284 62.8497 20.6955 62.9826C20.5626 63.1155 20.4879 63.2958 20.4879 63.4838V64.5469Z" fill="url(#paint10_linear_91_87)"/>
<path d="M20.4879 64.5469C20.4879 70.6219 25.4239 75.5578 31.271 75.6085L38.561 75.6338C38.9154 75.6338 39.2192 75.33 39.1939 74.9503C38.8395 68.2172 33.2707 62.775 26.4364 62.775H21.1967C21.0087 62.775 20.8284 62.8497 20.6955 62.9826C20.5626 63.1155 20.4879 63.2958 20.4879 63.4838V64.5469Z" fill="url(#paint11_linear_91_87)"/>
<path d="M20.4879 64.5469C20.4879 70.6219 25.4239 75.5578 31.271 75.6085L38.561 75.6338C38.9154 75.6338 39.2192 75.33 39.1939 74.9503C38.8395 68.2172 33.2707 62.775 26.4364 62.775H21.1967C21.0087 62.775 20.8284 62.8497 20.6955 62.9826C20.5626 63.1155 20.4879 63.2958 20.4879 63.4838V64.5469Z" fill="url(#paint12_radial_91_87)"/>
<g filter="url(#filter0_f_91_87)">
<path d="M22.604 65.6024C22.604 70.3004 26.4262 74.12 30.9495 74.158L36.5892 74.1783C36.6566 74.1777 36.7233 74.1634 36.785 74.1361C36.8467 74.1088 36.9022 74.0691 36.948 74.0195C36.9938 73.97 37.0289 73.9115 37.0512 73.8478C37.0735 73.7841 37.0825 73.7165 37.0777 73.6492C36.8043 68.4424 32.4961 64.233 27.2058 64.233H23.1558C22.8419 64.233 22.6065 64.4861 22.6065 64.7797L22.604 65.6024Z" fill="url(#paint13_linear_91_87)"/>
</g>
<path d="M42.4996 73.8619C42.4996 67.7869 47.4356 62.851 53.2828 62.8003L60.5728 62.775C60.9271 62.775 61.2309 63.0788 61.2056 63.4585C60.8512 70.1916 55.2824 75.6338 48.4481 75.6338H43.2084C43.1153 75.6338 43.0231 75.6154 42.9372 75.5798C42.8512 75.5442 42.773 75.492 42.7072 75.4262C42.6414 75.3604 42.5892 75.2822 42.5536 75.1963C42.518 75.1103 42.4996 75.0181 42.4996 74.925V73.8619Z" fill="url(#paint14_linear_91_87)"/>
<path d="M42.4996 73.8619C42.4996 67.7869 47.4356 62.851 53.2828 62.8003L60.5728 62.775C60.9271 62.775 61.2309 63.0788 61.2056 63.4585C60.8512 70.1916 55.2824 75.6338 48.4481 75.6338H43.2084C43.1153 75.6338 43.0231 75.6154 42.9372 75.5798C42.8512 75.5442 42.773 75.492 42.7072 75.4262C42.6414 75.3604 42.5892 75.2822 42.5536 75.1963C42.518 75.1103 42.4996 75.0181 42.4996 74.925V73.8619Z" fill="url(#paint15_linear_91_87)"/>
<path d="M42.4996 73.8619C42.4996 67.7869 47.4356 62.851 53.2828 62.8003L60.5728 62.775C60.9271 62.775 61.2309 63.0788 61.2056 63.4585C60.8512 70.1916 55.2824 75.6338 48.4481 75.6338H43.2084C43.1153 75.6338 43.0231 75.6154 42.9372 75.5798C42.8512 75.5442 42.773 75.492 42.7072 75.4262C42.6414 75.3604 42.5892 75.2822 42.5536 75.1963C42.518 75.1103 42.4996 75.0181 42.4996 74.925V73.8619Z" fill="url(#paint16_radial_91_87)"/>
<g filter="url(#filter1_f_91_87)">
<path d="M44.9297 72.4089C44.9297 67.878 48.8025 64.1976 53.3866 64.1571L59.1072 64.1393C59.3857 64.1393 59.6211 64.3672 59.6008 64.6507C59.3224 69.6701 54.956 73.7302 49.5948 73.7302H45.4866C45.415 73.7323 45.3438 73.7201 45.2769 73.6944C45.2101 73.6687 45.149 73.63 45.0973 73.5806C45.0455 73.5312 45.004 73.472 44.9752 73.4064C44.9465 73.3409 44.931 73.2703 44.9297 73.1987V72.4089Z" fill="url(#paint17_linear_91_87)"/>
</g>
<g filter="url(#filter2_ii_91_87)">
<path d="M68.2096 36.5766C68.5387 33.8681 65.1974 31.1597 60.3627 29.8181C64.4886 27.0084 66.7415 23.3634 65.5518 20.9334C64.3621 18.4781 60.0843 18.0225 55.3002 19.5412C57.224 14.9344 57.148 10.6566 54.8193 9.26437C52.693 7.97344 49.3011 9.46687 46.289 12.6816C45.4536 8.37844 43.378 5.34094 40.8974 5.31562C38.2143 5.23969 35.9108 8.68219 35.0502 13.4662C31.8608 9.79594 28.0893 7.99875 25.8365 9.41625C23.4824 10.8844 23.5077 15.3394 25.6086 20.0222C20.698 18.4528 16.2936 18.9591 15.104 21.4903C13.9649 23.9456 16.2936 27.5653 20.4955 30.3244C15.7115 31.7419 12.4208 34.4756 12.8005 37.1841C13.1802 39.8925 17.1036 41.6391 22.1408 41.6897C18.9008 45.4866 17.6352 49.5619 19.4324 51.6375C21.2296 53.7131 25.4821 53.0297 29.7093 50.3212C29.0511 55.2572 30.2408 59.3831 32.848 60.1425C35.4805 60.9019 38.6699 58.0162 40.7455 53.4347C42.8971 57.9403 46.1118 60.75 48.719 59.9653C51.3261 59.1806 52.4652 55.0041 51.7058 50.0428C55.9583 52.65 60.1855 53.2575 61.9321 51.1819C63.704 49.0809 62.3624 44.9803 59.0211 41.2341C64.0077 41.0822 67.8805 39.285 68.2096 36.5766ZM41.6568 28.9069C41.8846 29.2106 42.163 29.4638 42.4921 29.6663C42.8971 29.8941 43.3274 30.0206 43.8083 30.0713C43.8336 30.5269 43.9096 30.9572 44.1121 31.3369C44.3146 31.7419 44.6183 32.0963 44.998 32.4C44.7702 32.7797 44.6183 33.1847 44.5677 33.6403C44.5171 34.0959 44.593 34.5516 44.7196 35.0072C44.3146 35.2097 43.9602 35.4628 43.6818 35.7919C43.378 36.1462 43.2008 36.5766 43.0743 37.0322C42.6186 36.9816 42.1883 37.0069 41.7833 37.1334C41.353 37.26 40.948 37.5131 40.5936 37.8422C40.2393 37.5637 39.8596 37.3359 39.4546 37.2094C38.999 37.0828 38.5433 37.0828 38.0877 37.1588C37.9698 36.7344 37.753 36.344 37.4549 36.0197C37.1449 35.6742 36.7654 35.3981 36.3411 35.2097C36.4677 34.7794 36.493 34.3491 36.4424 33.9187C36.3665 33.4631 36.1893 33.0328 35.9361 32.6278C36.2652 32.3241 36.5436 31.995 36.7208 31.59C36.9233 31.1344 36.9993 30.6281 36.974 30.0966C37.5055 30.0459 38.0118 29.9447 38.4421 29.6663C38.7711 29.4638 39.0496 29.1853 39.2774 28.8816C39.6571 29.0334 40.0368 29.1347 40.4418 29.1347C40.8721 29.1347 41.2771 29.0588 41.6568 28.9069Z" fill="url(#paint18_linear_91_87)"/>
</g>
<path d="M40.5 48.0937C42.4482 48.0937 44.3774 47.71 46.1773 46.9644C47.9773 46.2189 49.6127 45.1261 50.9904 43.7485C52.368 42.3709 53.4608 40.7354 54.2063 38.9354C54.9519 37.1355 55.3356 35.2063 55.3356 33.2581C55.3356 31.3098 54.9519 29.3807 54.2063 27.5807C53.4608 25.7808 52.368 24.1453 50.9904 22.7677C49.6127 21.3901 47.9773 20.2973 46.1773 19.5517C44.3774 18.8062 42.4482 18.4224 40.5 18.4224C36.5653 18.4224 32.7918 19.9855 30.0096 22.7677C27.2273 25.5499 25.6643 29.3234 25.6643 33.2581C25.6643 37.1927 27.2273 40.9662 30.0096 43.7485C32.7918 46.5307 36.5653 48.0937 40.5 48.0937Z" fill="url(#paint19_radial_91_87)"/>
<path fill-rule="evenodd" clip-rule="evenodd" d="M34.2984 19.7767L35.9842 21.4625L38.4421 19.0046L38.0624 18.6224C39.8308 18.33 41.6374 18.3583 43.3957 18.7059L43.097 19.0046L45.5549 21.4625L47.066 19.9513C48.0819 20.4542 49.0252 21.0625 49.896 21.7763L47.8811 23.7912L50.301 26.2086L52.2754 24.2342C52.9672 25.1303 53.5494 26.1006 54.0219 27.1451L52.6297 28.5373L55.1255 31.0357L55.1635 30.9977C55.4033 32.556 55.3947 34.1425 55.1382 35.6982L55.1255 35.6881L52.6677 38.1459L53.9814 39.4622C53.5045 40.4883 52.9145 41.4579 52.2222 42.3529L50.3415 40.4747L47.9216 42.892L49.8251 44.7981C48.9527 45.5051 48.0051 46.1084 46.9825 46.6079L45.5954 45.2208L43.097 47.7191L43.2236 47.8457C41.5774 48.1503 39.8917 48.176 38.237 47.9216L38.4421 47.7191L35.9437 45.2208L34.3845 46.78C33.3519 46.3085 32.3755 45.7226 31.4735 45.0335L33.6175 42.892L31.1976 40.4747L29.0182 42.6516C28.307 41.7796 27.6949 40.8313 27.1932 39.8242L28.8714 38.1459L26.4136 35.6881L25.9478 36.1538C25.5814 34.2997 25.5702 32.3928 25.9149 30.5345L26.4136 31.0331L28.9119 28.5373L27.1502 26.7756C27.6497 25.7546 28.2529 24.8071 28.96 23.933L31.2381 26.2111L33.658 23.7887L31.4052 21.5359C32.301 20.8435 33.2715 20.2534 34.2984 19.7767ZM43.2666 42.892L40.7708 45.3904L38.2725 42.892L40.7708 40.3937L43.2666 42.892ZM48.0127 38.1459L45.5954 40.5658L43.097 38.0675L45.5169 35.6476L48.0127 38.1459ZM52.7993 33.3619L50.3415 35.8197L47.8431 33.3214L50.301 30.8635L52.7993 33.3619ZM35.9437 40.5658L38.4421 38.0675L36.0247 35.6476L33.5264 38.1459L35.9437 40.5658ZM31.1976 35.8197L33.696 33.3214L31.2381 30.8635L28.7398 33.3619L31.1976 35.8197ZM43.1882 33.3214L40.7683 35.7412L38.351 33.3214L40.7708 30.9015L43.1882 33.3214ZM47.9722 28.5373L45.5169 30.9926L43.097 28.5753L45.5549 26.1174L47.9722 28.5373ZM36.0247 30.9926L38.4421 28.5753L35.9842 26.1174L33.5644 28.5373L36.0247 30.9926ZM43.2287 23.7937L40.7708 26.2491L38.3105 23.7937L40.7708 21.3334L43.2287 23.7937Z" fill="url(#paint20_radial_91_87)"/>
<path fill-rule="evenodd" clip-rule="evenodd" d="M34.2984 19.7767L35.9842 21.4625L38.4421 19.0046L38.0624 18.6224C39.8308 18.33 41.6374 18.3583 43.3957 18.7059L43.097 19.0046L45.5549 21.4625L47.066 19.9513C48.0819 20.4542 49.0252 21.0625 49.896 21.7763L47.8811 23.7912L50.301 26.2086L52.2754 24.2342C52.9672 25.1303 53.5494 26.1006 54.0219 27.1451L52.6297 28.5373L55.1255 31.0357L55.1635 30.9977C55.4033 32.556 55.3947 34.1425 55.1382 35.6982L55.1255 35.6881L52.6677 38.1459L53.9814 39.4622C53.5045 40.4883 52.9145 41.4579 52.2222 42.3529L50.3415 40.4747L47.9216 42.892L49.8251 44.7981C48.9527 45.5051 48.0051 46.1084 46.9825 46.6079L45.5954 45.2208L43.097 47.7191L43.2236 47.8457C41.5774 48.1503 39.8917 48.176 38.237 47.9216L38.4421 47.7191L35.9437 45.2208L34.3845 46.78C33.3519 46.3085 32.3755 45.7226 31.4735 45.0335L33.6175 42.892L31.1976 40.4747L29.0182 42.6516C28.307 41.7796 27.6949 40.8313 27.1932 39.8242L28.8714 38.1459L26.4136 35.6881L25.9478 36.1538C25.5814 34.2997 25.5702 32.3928 25.9149 30.5345L26.4136 31.0331L28.9119 28.5373L27.1502 26.7756C27.6497 25.7546 28.2529 24.8071 28.96 23.933L31.2381 26.2111L33.658 23.7887L31.4052 21.5359C32.301 20.8435 33.2715 20.2534 34.2984 19.7767ZM43.2666 42.892L40.7708 45.3904L38.2725 42.892L40.7708 40.3937L43.2666 42.892ZM48.0127 38.1459L45.5954 40.5658L43.097 38.0675L45.5169 35.6476L48.0127 38.1459ZM52.7993 33.3619L50.3415 35.8197L47.8431 33.3214L50.301 30.8635L52.7993 33.3619ZM35.9437 40.5658L38.4421 38.0675L36.0247 35.6476L33.5264 38.1459L35.9437 40.5658ZM31.1976 35.8197L33.696 33.3214L31.2381 30.8635L28.7398 33.3619L31.1976 35.8197ZM43.1882 33.3214L40.7683 35.7412L38.351 33.3214L40.7708 30.9015L43.1882 33.3214ZM47.9722 28.5373L45.5169 30.9926L43.097 28.5753L45.5549 26.1174L47.9722 28.5373ZM36.0247 30.9926L38.4421 28.5753L35.9842 26.1174L33.5644 28.5373L36.0247 30.9926ZM43.2287 23.7937L40.7708 26.2491L38.3105 23.7937L40.7708 21.3334L43.2287 23.7937Z" fill="url(#paint21_linear_91_87)"/>
<g filter="url(#filter3_f_91_87)">
<path d="M28.9119 64.6658C31.838 65.0607 36.6043 68.4981 37.0777 73.6543" stroke="url(#paint22_linear_91_87)" stroke-width="0.25" stroke-linecap="round"/>
</g>
<defs>
<filter id="filter0_f_91_87" x="22.229" y="63.858" width="15.225" height="10.6953" filterUnits="userSpaceOnUse" color-interpolation-filters="sRGB">
<feFlood flood-opacity="0" result="BackgroundImageFix"/>
<feBlend mode="normal" in="SourceGraphic" in2="BackgroundImageFix" result="shape"/>
<feGaussianBlur stdDeviation="0.1875" result="effect1_foregroundBlur_91_87"/>
</filter>
<filter id="filter1_f_91_87" x="44.6297" y="63.8393" width="15.2724" height="10.1911" filterUnits="userSpaceOnUse" color-interpolation-filters="sRGB">
<feFlood flood-opacity="0" result="BackgroundImageFix"/>
<feBlend mode="normal" in="SourceGraphic" in2="BackgroundImageFix" result="shape"/>
<feGaussianBlur stdDeviation="0.15" result="effect1_foregroundBlur_91_87"/>
</filter>
<filter id="filter2_ii_91_87" x="12.7708" y="5.16439" width="55.4612" height="55.224" filterUnits="userSpaceOnUse" color-interpolation-filters="sRGB">
<feFlood flood-opacity="0" result="BackgroundImageFix"/>
<feBlend mode="normal" in="SourceGraphic" in2="BackgroundImageFix" result="shape"/>
<feColorMatrix in="SourceAlpha" type="matrix" values="0 0 0 0 0 0 0 0 0 0 0 0 0 0 0 0 0 0 127 0" result="hardAlpha"/>
<feOffset dy="-0.15"/>
<feGaussianBlur stdDeviation="0.25"/>
<feComposite in2="hardAlpha" operator="arithmetic" k2="-1" k3="1"/>
<feColorMatrix type="matrix" values="0 0 0 0 0.775 0 0 0 0 0.571832 0 0 0 0 0.287396 0 0 0 1 0"/>
<feBlend mode="normal" in2="shape" result="effect1_innerShadow_91_87"/>
<feColorMatrix in="SourceAlpha" type="matrix" values="0 0 0 0 0 0 0 0 0 0 0 0 0 0 0 0 0 0 127 0" result="hardAlpha"/>
<feOffset dy="0.125"/>
<feGaussianBlur stdDeviation="0.1875"/>
<feComposite in2="hardAlpha" operator="arithmetic" k2="-1" k3="1"/>
<feColorMatrix type="matrix" values="0 0 0 0 1 0 0 0 0 0.972549 0 0 0 0 0.427451 0 0 0 1 0"/>
<feBlend mode="normal" in2="effect1_innerShadow_91_87" result="effect2_innerShadow_91_87"/>
</filter>
<filter id="filter3_f_91_87" x="28.5369" y="64.2908" width="8.91577" height="9.73846" filterUnits="userSpaceOnUse" color-interpolation-filters="sRGB">
<feFlood flood-opacity="0" result="BackgroundImageFix"/>
<feBlend mode="normal" in="SourceGraphic" in2="BackgroundImageFix" result="shape"/>
<feGaussianBlur stdDeviation="0.125" result="effect1_foregroundBlur_91_87"/>
</filter>
<linearGradient id="paint0_linear_91_87" x1="40.7734" y1="75.6464" x2="40.7734" y2="49.9973" gradientUnits="userSpaceOnUse">
<stop offset="0.011" stop-color="#8ED800"/>
<stop offset="1" stop-color="#008461"/>
</linearGradient>
<linearGradient id="paint1_linear_91_87" x1="38.5028" y1="74.644" x2="17.944" y2="62.775" gradientUnits="userSpaceOnUse">
<stop offset="0.011" stop-color="#8ED800"/>
<stop offset="1" stop-color="#008461"/>
</linearGradient>
<linearGradient id="paint2_linear_91_87" x1="47.509" y1="71.1484" x2="63.7267" y2="63.585" gradientUnits="userSpaceOnUse">
<stop offset="0.011" stop-color="#8ED800"/>
<stop offset="1" stop-color="#008461"/>
</linearGradient>
<linearGradient id="paint3_linear_91_87" x1="41.0923" y1="5.29537" x2="40.057" y2="60.3577" gradientUnits="userSpaceOnUse">
<stop stop-color="#F8EC1D"/>
<stop offset="1" stop-color="#F7BE1E"/>
</linearGradient>
<linearGradient id="paint4_linear_91_87" x1="40.786" y1="18.4275" x2="40.2291" y2="48.0811" gradientUnits="userSpaceOnUse">
<stop stop-color="#9C634D"/>
<stop offset="1" stop-color="#63332A"/>
</linearGradient>
<linearGradient id="paint5_linear_91_87" x1="40.7734" y1="75.6464" x2="40.7734" y2="51.6527" gradientUnits="userSpaceOnUse">
<stop stop-color="#5DA112"/>
<stop offset="1" stop-color="#74A93F"/>
</linearGradient>
<linearGradient id="paint6_linear_91_87" x1="37.9283" y1="70.9155" x2="39.5103" y2="70.7965" gradientUnits="userSpaceOnUse">
<stop stop-color="#51923C"/>
<stop offset="1" stop-color="#51923C" stop-opacity="0"/>
</linearGradient>
<linearGradient id="paint7_linear_91_87" x1="43.3021" y1="71.0345" x2="42.0416" y2="71.0345" gradientUnits="userSpaceOnUse">
<stop stop-color="#51923C"/>
<stop offset="1" stop-color="#51923C" stop-opacity="0"/>
</linearGradient>
<linearGradient id="paint8_linear_91_87" x1="38.0093" y1="59.8792" x2="39.1154" y2="59.9197" gradientUnits="userSpaceOnUse">
<stop stop-color="#8FB87F"/>
<stop offset="1" stop-color="#8FB87F" stop-opacity="0"/>
</linearGradient>
<radialGradient id="paint9_radial_91_87" cx="0" cy="0" r="1" gradientUnits="userSpaceOnUse" gradientTransform="translate(41.2923 68.4222) rotate(90) scale(9.17578 1.18652)">
<stop stop-color="#83B15D"/>
<stop offset="1" stop-color="#83B15D" stop-opacity="0"/>
</radialGradient>
<linearGradient id="paint10_linear_91_87" x1="31.9773" y1="62.775" x2="21.2979" y2="77.231" gradientUnits="userSpaceOnUse">
<stop offset="0.011" stop-color="#629B53"/>
<stop offset="1" stop-color="#4D9055"/>
</linearGradient>
<linearGradient id="paint11_linear_91_87" x1="35.4577" y1="76.6792" x2="35.4577" y2="71.6951" gradientUnits="userSpaceOnUse">
<stop stop-color="#6F7E82"/>
<stop offset="1" stop-color="#6F7E82" stop-opacity="0"/>
</linearGradient>
<radialGradient id="paint12_radial_91_87" cx="0" cy="0" r="1" gradientUnits="userSpaceOnUse" gradientTransform="translate(32.508 63.7531) rotate(158.54) scale(12.3241 16.7864)">
<stop offset="0.841" stop-color="#92B196" stop-opacity="0"/>
<stop offset="1" stop-color="#92B196"/>
</radialGradient>
<linearGradient id="paint13_linear_91_87" x1="37.0777" y1="72.9607" x2="23.7507" y2="64.4557" gradientUnits="userSpaceOnUse">
<stop stop-color="#6FA06A"/>
<stop offset="1" stop-color="#619A6A"/>
</linearGradient>
<linearGradient id="paint14_linear_91_87" x1="45.1676" y1="75.6338" x2="63.3293" y2="63.5369" gradientUnits="userSpaceOnUse">
<stop stop-color="#528C39"/>
<stop offset="1" stop-color="#81BD52"/>
</linearGradient>
<linearGradient id="paint15_linear_91_87" x1="48.805" y1="76.4919" x2="48.805" y2="72.9329" gradientUnits="userSpaceOnUse">
<stop stop-color="#6A806E"/>
<stop offset="1" stop-color="#6A806E" stop-opacity="0"/>
</linearGradient>
<radialGradient id="paint16_radial_91_87" cx="0" cy="0" r="1" gradientUnits="userSpaceOnUse" gradientTransform="translate(60.7499 63.3218) rotate(133.898) scale(2.90907 0.616776)">
<stop stop-color="#9DD271"/>
<stop offset="1" stop-color="#9DD271" stop-opacity="0"/>
</radialGradient>
<linearGradient id="paint17_linear_91_87" x1="57.5859" y1="64.1393" x2="47.6938" y2="72.3254" gradientUnits="userSpaceOnUse">
<stop stop-color="#87BE58"/>
<stop offset="1" stop-color="#7BA561"/>
</linearGradient>
<linearGradient id="paint18_linear_91_87" x1="50.1516" y1="14.0813" x2="39.3938" y2="59.168" gradientUnits="userSpaceOnUse">
<stop stop-color="#FFE447"/>
<stop offset="1" stop-color="#F7B44B"/>
</linearGradient>
<radialGradient id="paint19_radial_91_87" cx="0" cy="0" r="1" gradientUnits="userSpaceOnUse" gradientTransform="translate(54.2649 30.137) rotate(152.156) scale(22.1859 19.4751)">
<stop stop-color="#966261"/>
<stop offset="1" stop-color="#7B454A"/>
</radialGradient>
<radialGradient id="paint20_radial_91_87" cx="0" cy="0" r="1" gradientUnits="userSpaceOnUse" gradientTransform="translate(51.7337 29.428) rotate(146.31) scale(15.4011)">
<stop stop-color="#8C6161"/>
<stop offset="1" stop-color="#693542"/>
</radialGradient>
<linearGradient id="paint21_linear_91_87" x1="40.5" y1="41.1328" x2="40.5" y2="49.6758" gradientUnits="userSpaceOnUse">
<stop stop-color="#723152" stop-opacity="0"/>
<stop offset="1" stop-color="#723152"/>
</linearGradient>
<linearGradient id="paint22_linear_91_87" x1="37.0777" y1="68.8297" x2="24.9378" y2="61.8688" gradientUnits="userSpaceOnUse">
<stop stop-color="#86AD7A"/>
<stop offset="1" stop-color="#86AD7A" stop-opacity="0"/>
</linearGradient>
</defs>
</svg>
