<svg width="81" height="114" viewBox="0 0 81 114" fill="none" xmlns="http://www.w3.org/2000/svg">
<path d="M1.00001 54.604C1.00001 53.1961 1.52022 51.8458 2.44618 50.8502C3.37214 49.8546 4.62801 49.2953 5.93751 49.2953H75.0625C76.372 49.2953 77.6279 49.8546 78.5539 50.8502C79.4798 51.8458 80 53.1961 80 54.604V65.2215C80 66.6294 79.4798 67.9797 78.5539 68.9753C77.6279 69.9709 76.372 70.5302 75.0625 70.5302H5.93751C4.62801 70.5302 3.37214 69.9709 2.44618 68.9753C1.52022 67.9797 1.00001 66.6294 1.00001 65.2215V54.604ZM5.93751 70.5302H75.0625L65.1875 113H15.8125L5.93751 70.5302Z" fill="#72482E"/>
<path d="M75.0625 70.5302C76.372 70.5302 77.6279 69.9709 78.5539 68.9753C79.4798 67.9797 80 66.6294 80 65.2215V54.604C80 53.1961 79.4798 51.8458 78.5539 50.8502C77.6279 49.8546 76.372 49.2953 75.0625 49.2953H5.93751C4.62801 49.2953 3.37214 49.8546 2.44618 50.8502C1.52022 51.8458 1.00001 53.1961 1.00001 54.604V65.2215C1.00001 66.6294 1.52022 67.9797 2.44618 68.9753C3.37214 69.9709 4.62801 70.5302 5.93751 70.5302M75.0625 70.5302H5.93751M75.0625 70.5302L65.1875 113H15.8125L5.93751 70.5302" stroke="black" stroke-width="2" stroke-linecap="round" stroke-linejoin="round"/>
<path d="M57.6594 34.4572C55.5819 35.7201 53.1958 36.3842 50.7645 36.3764C48.7277 36.3603 46.7139 35.9437 44.8379 35.1503C43.392 37.1916 42.6182 39.6326 42.6241 42.1341V48.5221C42.6246 48.7596 42.5763 48.9948 42.4821 49.2129C42.3879 49.431 42.2499 49.6274 42.0766 49.7899C41.9033 49.9524 41.6985 50.0776 41.4748 50.1576C41.2511 50.2376 41.0134 50.2708 40.7763 50.255C40.3309 50.2162 39.9166 50.0105 39.6165 49.6791C39.3164 49.3476 39.1527 48.915 39.1582 48.4679V45.7732L30.7925 37.4075C29.5489 37.8714 28.2337 38.1141 26.9064 38.1245C25.0791 38.1292 23.2861 37.6292 21.7249 36.6797C17.0048 33.8117 14.4639 27.2114 14.9556 19.0168C14.9804 18.5928 15.16 18.1927 15.4603 17.8924C15.7606 17.5921 16.1607 17.4126 16.5846 17.3878C24.7792 16.9047 31.3795 19.437 34.2388 24.1571C35.3622 26.0071 35.8527 28.1727 35.636 30.3263C35.6225 30.4932 35.561 30.6525 35.4589 30.7852C35.3568 30.9178 35.2184 31.018 35.0606 31.0737C34.9027 31.1294 34.7321 31.1381 34.5693 31.0989C34.4066 31.0597 34.2587 30.9742 34.1435 30.8527L29.9845 26.4987C29.6569 26.1874 29.2206 26.0164 28.7687 26.0222C28.3168 26.028 27.8851 26.2101 27.5655 26.5297C27.246 26.8492 27.0639 27.281 27.0581 27.7328C27.0523 28.1847 27.2233 28.621 27.5346 28.9486L39.2059 40.9167C39.2189 40.7477 39.234 40.5788 39.2513 40.412C39.6303 37.199 41.0481 34.1977 43.2891 31.8643L54.2477 20.284C54.5729 19.9591 54.7557 19.5183 54.7559 19.0587C54.7561 18.599 54.5737 18.1581 54.2488 17.8329C53.9239 17.5078 53.4832 17.325 53.0235 17.3248C52.5639 17.3246 52.1229 17.507 51.7978 17.8319L41.1836 29.0569C41.0773 29.1695 40.9429 29.2515 40.7942 29.2945C40.6455 29.3375 40.488 29.3398 40.3381 29.3014C40.1882 29.2629 40.0514 29.185 39.9418 29.0757C39.8322 28.9664 39.7538 28.8298 39.7149 28.68C38.6881 24.8936 39.1409 21.1244 41.1013 17.8882C44.97 11.5023 53.9726 8.08412 65.1847 8.74263C65.6086 8.76739 66.0087 8.94696 66.309 9.24725C66.6093 9.54754 66.7889 9.94764 66.8136 10.3716C67.4635 21.5858 64.0453 30.5884 57.6594 34.4572Z" fill="#14AE5C"/>
</svg>
