<svg width="80" height="119" viewBox="0 0 80 119" fill="none" xmlns="http://www.w3.org/2000/svg">
<path d="M1.00001 66.8658C1.00001 65.6329 1.51363 64.4505 2.42787 63.5788C3.34211 62.707 4.58208 62.2172 5.87501 62.2172H74.125C75.4179 62.2172 76.6579 62.707 77.5722 63.5788C78.4864 64.4505 79 65.6329 79 66.8658V76.1629C79 77.3958 78.4864 78.5782 77.5722 79.4499C76.6579 80.3217 75.4179 80.8115 74.125 80.8115H5.87501C4.58208 80.8115 3.34211 80.3217 2.42787 79.4499C1.51363 78.5782 1.00001 77.3958 1.00001 76.1629V66.8658ZM5.87501 80.8115H74.125L64.375 118H15.625L5.87501 80.8115Z" fill="#72482E"/>
<path d="M74.125 80.8115C75.4179 80.8115 76.6579 80.3217 77.5722 79.4499C78.4864 78.5782 79 77.3958 79 76.1629V66.8658C79 65.6329 78.4864 64.4505 77.5722 63.5788C76.6579 62.707 75.4179 62.2172 74.125 62.2172H5.87501C4.58208 62.2172 3.34211 62.707 2.42787 63.5788C1.51363 64.4505 1.00001 65.6329 1.00001 66.8658V76.1629C1.00001 77.3958 1.51363 78.5782 2.42787 79.4499C3.34211 80.3217 4.58208 80.8115 5.87501 80.8115M74.125 80.8115H5.87501M74.125 80.8115L64.375 118H15.625L5.87501 80.8115" stroke="black" stroke-width="2" stroke-linecap="round" stroke-linejoin="round"/>
<path d="M55.9775 49.0389C54.0458 50.2132 51.8271 50.8307 49.5665 50.8234C47.6726 50.8085 45.8002 50.4211 44.0558 49.6834C42.7114 51.5814 41.9919 53.8511 41.9974 56.177V62.1167C41.9978 62.3376 41.9529 62.5562 41.8653 62.759C41.7778 62.9618 41.6494 63.1444 41.4883 63.2955C41.3272 63.4467 41.1367 63.563 40.9287 63.6374C40.7208 63.7118 40.4997 63.7427 40.2793 63.728C39.8651 63.692 39.4799 63.5007 39.2009 63.1925C38.9218 62.8843 38.7696 62.4821 38.7747 62.0664V59.5608L30.9961 51.7822C29.8398 52.2136 28.6169 52.4392 27.3828 52.4488C25.6837 52.4532 24.0165 51.9883 22.5649 51.1054C18.1761 48.4387 15.8135 42.3016 16.2708 34.6821C16.2938 34.2879 16.4607 33.9159 16.74 33.6367C17.0192 33.3575 17.3912 33.1905 17.7854 33.1675C25.4049 32.7183 31.542 35.0729 34.2006 39.4617C35.2452 41.1819 35.7012 43.1955 35.4997 45.1979C35.4872 45.3531 35.43 45.5013 35.3351 45.6246C35.2401 45.7479 35.1115 45.8411 34.9647 45.8929C34.8179 45.9447 34.6592 45.9528 34.5079 45.9163C34.3566 45.8799 34.2191 45.8003 34.112 45.6874L30.2449 41.639C29.9402 41.3495 29.5346 41.1906 29.1144 41.1959C28.6942 41.2013 28.2928 41.3706 27.9957 41.6678C27.6985 41.9649 27.5292 42.3663 27.5238 42.7865C27.5185 43.2067 27.6774 43.6123 27.9669 43.9169L38.819 55.0451C38.8311 54.888 38.8452 54.7309 38.8613 54.5758C39.2137 51.5883 40.532 48.7976 42.6157 46.628L52.8052 35.8604C53.1076 35.5583 53.2775 35.1485 53.2777 34.7211C53.2779 34.2937 53.1083 33.8837 52.8062 33.5814C52.5042 33.279 52.0943 33.1091 51.6669 33.1089C51.2395 33.1087 50.8296 33.2783 50.5272 33.5804L40.658 44.0177C40.5592 44.1223 40.4342 44.1986 40.2959 44.2385C40.1577 44.2785 40.0112 44.2807 39.8719 44.2449C39.7325 44.2092 39.6052 44.1367 39.5033 44.0351C39.4014 43.9335 39.3286 43.8065 39.2924 43.6672C38.3377 40.1465 38.7586 36.6419 40.5814 33.6327C44.1787 27.6951 52.5494 24.5168 62.9746 25.1291C63.3688 25.1521 63.7408 25.319 64.02 25.5983C64.2993 25.8775 64.4662 26.2495 64.4893 26.6437C65.0935 37.0709 61.9152 45.4417 55.9775 49.0389Z" fill="#14AE5C"/>
<g clip-path="url(#clip0_91_86)">
<mask id="mask0_91_86" style="mask-type:luminance" maskUnits="userSpaceOnUse" x="23" y="0" width="29" height="46">
<path d="M50.2596 24.3656C49.6603 31.5564 43.4909 36.9125 36.4792 36.3281C29.4675 35.7437 24.2698 29.4403 24.8691 22.2495C25.4684 15.0588 39.344 1.9533 39.344 1.9533C39.344 1.9533 50.859 17.1737 50.2596 24.3656Z" fill="white" stroke="white" stroke-width="2" stroke-linejoin="round"/>
<path d="M39.344 1.95331L36.4792 36.3281" stroke="black" stroke-width="2" stroke-linecap="round" stroke-linejoin="round"/>
<path d="M36.4791 36.3281L35.7629 44.9218" stroke="white" stroke-width="2" stroke-linecap="round" stroke-linejoin="round"/>
<path d="M50.2596 24.3656C49.6603 31.5564 43.4909 36.9125 36.4792 36.3281C29.4675 35.7437 24.2698 29.4403 24.869 22.2506M50.2596 24.3656C50.859 17.1737 39.344 1.9533 39.344 1.9533C39.344 1.9533 25.4684 15.0588 24.869 22.2506" stroke="white" stroke-width="2" stroke-linejoin="round"/>
</mask>
<g mask="url(#mask0_91_86)">
<path d="M16.2648 -4.29688L63.1395 -0.390278L58.8422 51.1719L11.9675 47.2653L16.2648 -4.29688Z" fill="#14AE5C"/>
</g>
</g>
<defs>
<clipPath id="clip0_91_86">
<rect width="47.0372" height="47.0372" fill="white" transform="translate(15.9066) rotate(4.76409)"/>
</clipPath>
</defs>
</svg>
